# xmcd CD database file
# Copyright (C) 1995-1998 Ti Kan
#
# Track frame offsets:
#	150
#	20678
#	32516
#	42814
#	53234
#	73373
#	93116
#	105074
#	120822
#	147273
#	173158
#	186774
#	203334
#	223815
#	239379
#	251478
#	261810
#	274162
#	296147
#	308116
#
# Disc length: 4301 seconds
#
# Revision: 1
# Processed by: cddbd v1.4PL0 Copyright (c) Steve Scherf et al.
# Submitted via: CDex 1.30Release
#
DISCID=1910cb14
DTITLE=Pappo´s Blues - Con el Blues en la sangre - 40 Obras Fundamentales - 
DTITLE=CD2
DYEAR=2000
DGENRE=Blues
TTITLE0=Sucio y desprolijo
TTITLE1=El viejo
TTITLE2=Arboles difusores
TTITLE3=Hombre suburbano
TTITLE4=Especies
TTITLE5=Algo ha cambiado
TTITLE6=Desconfio de la vida
TTITLE7=Llegara la paz
TTITLE8=Malas compañias
TTITLE9=Slide Blues
TTITLE10=Completamente nervioso
TTITLE11=Caras en el parque
TTITLE12=Gris y amarillo
TTITLE13=Vendriamos a buscar
TTITLE14=Aire en movimiento
TTITLE15=El brujo y el tiempo
TTITLE16=Hay tiempo para elegir
TTITLE17=Nada estoy sabiendo
TTITLE18=Vine cruzando el mar
TTITLE19=Buen Tiempo
EXTD=YEAR: 2000 ID3G:   0
EXTT0=
EXTT1=
EXTT2=
EXTT3=
EXTT4=
EXTT5=
EXTT6=
EXTT7=
EXTT8=
EXTT9=
EXTT10=
EXTT11=
EXTT12=
EXTT13=
EXTT14=
EXTT15=
EXTT16=
EXTT17=
EXTT18=
EXTT19=
PLAYORDER=
